<?xml version="1.0" standalone="no"?>
<!DOCTYPE svg PUBLIC "-//W3C//DTD SVG 20010904//EN"
 "http://www.w3.org/TR/2001/REC-SVG-20010904/DTD/svg10.dtd">
<svg version="1.0" xmlns="http://www.w3.org/2000/svg"
 width="16.000000pt" height="16.000000pt" viewBox="0 0 16.000000 16.000000"
 preserveAspectRatio="xMidYMid meet">
<metadata>
Created by potrace 1.11, written by Peter Selinger 2001-2013
</metadata>
<g transform="translate(0.000000,16.000000) scale(0.003912,-0.003912)"
fill="#000000" stroke="none">
<path d="M2045 4070 c-18 -20 -18 -21 3 -43 l22 -21 22 21 c21 22 21 23 3 43
-10 11 -21 20 -25 20 -4 0 -15 -9 -25 -20z"/>
<path d="M1872 4068 c-17 -17 -15 -32 8 -53 19 -17 20 -17 39 6 18 22 18 26 4
42 -19 20 -34 22 -51 5z"/>
<path d="M2223 4061 c-20 -17 -21 -20 -7 -40 18 -26 36 -27 57 -3 14 15 14 19
-3 40 -22 26 -19 26 -47 3z"/>
<path d="M1695 4038 c-15 -22 -14 -24 6 -40 28 -24 33 -23 50 8 12 23 12 27
-6 40 -25 19 -31 18 -50 -8z"/>
<path d="M2395 4036 c-18 -13 -18 -17 -6 -40 17 -31 19 -31 49 -8 21 16 21 19
7 40 -19 26 -25 27 -50 8z"/>
<path d="M1525 4003 c-17 -25 -17 -27 1 -40 25 -18 42 -16 54 7 12 23 7 35
-20 50 -14 8 -21 4 -35 -17z"/>
<path d="M2568 3999 c-21 -12 -22 -28 -4 -52 13 -17 16 -18 40 -2 22 14 23 20
14 41 -12 26 -23 29 -50 13z"/>
<path d="M1355 3950 c-15 -29 -15 -31 10 -40 35 -13 42 -13 49 6 11 28 6 41
-19 52 -22 10 -26 9 -40 -18z"/>
<path d="M2738 3944 c-25 -13 -26 -17 -16 -39 13 -28 26 -31 52 -12 14 10 15
18 7 40 -6 15 -12 27 -13 27 -2 -1 -15 -7 -30 -16z"/>
<path d="M1192 3881 c-10 -27 -8 -30 19 -40 27 -9 31 -8 40 17 8 21 7 29 -7
39 -27 20 -41 16 -52 -16z"/>
<path d="M2898 3878 c-24 -8 -26 -12 -16 -39 11 -33 9 -32 43 -19 21 8 25 14
20 33 -10 32 -17 36 -47 25z"/>
<path d="M1036 3804 c-5 -18 -3 -30 6 -35 25 -16 48 -9 54 16 8 30 7 31 -27
40 -23 6 -27 3 -33 -21z"/>
<path d="M3042 3791 c-18 -11 -5 -61 17 -61 30 0 44 16 37 44 -6 26 -29 33
-54 17z"/>
<path d="M1964 3761 c-109 -50 -119 -171 -20 -245 39 -30 153 -30 192 0 48 35
69 72 69 119 0 55 -26 92 -85 123 -53 27 -101 28 -156 3z m109 -2 c37 -17 57
-60 57 -126 0 -97 -50 -151 -119 -127 -41 14 -63 68 -58 143 3 57 7 67 35 92
35 32 49 35 85 18z"/>
<path d="M2333 3744 c33 -18 33 -24 5 -131 -20 -76 -21 -87 -8 -111 21 -38 93
-72 153 -72 38 0 53 5 72 25 14 13 25 31 25 38 0 8 9 45 21 81 18 60 23 67 50
73 16 3 27 8 24 12 -11 10 -125 39 -125 31 0 -4 9 -10 20 -13 29 -8 34 -49 14
-123 -24 -89 -45 -114 -95 -114 -53 0 -97 24 -105 57 -8 30 21 155 43 192 12
19 21 22 46 17 54 -10 8 10 -76 33 -90 25 -102 26 -64 5z"/>
<path d="M887 3713 c-7 -36 -2 -43 34 -43 26 0 29 3 29 30 0 19 -5 30 -14 30
-8 0 -21 3 -29 6 -10 3 -16 -4 -20 -23z"/>
<path d="M1577 3710 c-113 -29 -138 -40 -94 -40 14 0 28 -3 31 -8 2 -4 16 -52
30 -107 l27 -100 -26 -22 c-14 -13 -24 -23 -22 -23 23 0 235 63 259 77 61 36
53 99 -15 118 l-38 11 26 24 c30 28 32 51 7 73 -31 28 -72 27 -185 -3z m117
-6 c9 -8 16 -29 16 -44 0 -33 -27 -56 -77 -66 -30 -6 -32 -5 -43 37 -6 24 -13
49 -15 56 -2 6 13 16 33 21 54 14 69 14 86 -4z m36 -124 c20 -11 33 -50 24
-75 -7 -18 -46 -40 -90 -49 -30 -7 -31 -6 -42 44 -7 29 -12 58 -12 65 0 22 87
33 120 15z"/>
<path d="M3207 3702 c-25 -3 -28 -7 -25 -35 3 -29 6 -32 33 -29 38 5 38 4 28
38 -7 24 -13 28 -36 26z"/>
<path d="M747 3603 c-6 -33 -9 -29 31 -38 31 -6 32 -6 32 29 0 33 -2 36 -29
36 -23 0 -30 -5 -34 -27z"/>
<path d="M2758 3613 c7 -2 17 -14 23 -24 8 -16 2 -36 -35 -103 -53 -97 -67
-111 -101 -102 -14 4 -25 5 -25 2 0 -2 46 -30 103 -62 56 -32 116 -66 133 -76
l32 -19 30 53 c17 29 29 54 28 56 -2 2 -21 -8 -41 -23 -46 -30 -83 -32 -136
-4 l-40 20 24 42 c13 23 39 68 57 100 37 65 50 75 86 59 13 -7 24 -8 24 -4 0
8 -154 92 -167 91 -4 0 -2 -3 5 -6z"/>
<path d="M3343 3592 c-18 -3 -23 -10 -23 -33 0 -26 3 -29 30 -29 27 0 30 3 30
29 0 34 -6 39 -37 33z"/>
<path d="M1101 3495 c-130 -85 -135 -89 -100 -80 32 8 44 -3 103 -98 51 -82
54 -92 29 -120 -26 -29 -10 -20 125 67 l122 78 -16 27 c-9 15 -24 37 -33 50
-17 22 -17 21 -17 -34 1 -54 -1 -59 -38 -91 -22 -19 -44 -34 -50 -34 -6 0 -24
21 -40 46 -24 38 -26 48 -15 55 22 14 44 11 72 -11 42 -33 40 -23 -13 55 -28
41 -52 75 -55 75 -2 0 1 -14 7 -31 7 -22 7 -37 -1 -55 -14 -31 -34 -31 -55 1
-53 82 -52 70 -1 100 50 30 93 29 127 -2 10 -9 20 -14 23 -12 4 5 -47 89 -55
89 -3 0 -56 -34 -119 -75z"/>
<path d="M620 3480 c0 -27 3 -30 30 -30 27 0 30 3 30 30 0 27 -3 30 -30 30
-27 0 -30 -3 -30 -30z"/>
<path d="M3440 3440 c0 -28 3 -30 35 -30 32 0 35 2 35 30 0 28 -3 30 -35 30
-32 0 -35 -2 -35 -30z"/>
<path d="M3105 3397 c14 -22 14 -26 -6 -53 -12 -16 -45 -53 -73 -81 -50 -53
-80 -65 -104 -41 -7 7 -12 8 -12 2 0 -19 179 -172 215 -184 72 -24 148 20 165
95 14 64 -5 102 -98 197 -84 86 -118 111 -87 65z m129 -125 c41 -54 6 -142
-75 -186 -44 -24 -72 -18 -123 26 l-37 33 86 92 c85 91 87 93 109 76 12 -9 30
-28 40 -41z"/>
<path d="M498 3385 c-2 -3 -3 -18 0 -35 4 -25 9 -30 33 -30 26 0 29 3 29 35 0
32 -3 35 -28 35 -16 0 -31 -2 -34 -5z"/>
<path d="M3565 3342 c-3 -3 -5 -18 -5 -34 0 -24 4 -28 29 -28 26 0 40 17 41
51 0 8 -58 17 -65 11z"/>
<path d="M762 3207 c-34 -34 -62 -67 -62 -72 0 -5 5 -4 12 3 24 24 54 10 126
-57 71 -68 84 -94 60 -120 -7 -8 -8 -12 -3 -10 6 2 56 51 112 109 l103 106
-43 42 c-50 49 -63 53 -42 12 8 -16 15 -47 15 -70 0 -32 -7 -48 -34 -78 l-35
-37 -76 75 c-95 93 -100 102 -79 135 9 14 15 25 12 25 -2 0 -32 -28 -66 -63z"/>
<path d="M388 3245 c-2 -3 -3 -19 0 -36 4 -26 8 -30 26 -25 11 3 26 6 32 6 6
0 9 13 6 30 -4 25 -9 30 -31 30 -15 0 -30 -2 -33 -5z"/>
<path d="M3666 3184 c-9 -32 4 -47 35 -42 18 2 25 10 27 31 2 19 -1 27 -12 27
-8 0 -21 3 -29 6 -10 3 -17 -4 -21 -22z"/>
<path d="M2035 3130 c-18 -20 -18 -21 3 -43 l22 -21 22 21 c21 22 21 23 3 43
-10 11 -21 20 -25 20 -4 0 -15 -9 -25 -20z"/>
<path d="M1846 3115 c-16 -25 -16 -27 6 -45 23 -19 23 -19 41 2 21 25 19 36
-10 55 -18 12 -22 11 -37 -12z"/>
<path d="M2217 3112 c-15 -16 -15 -20 -1 -40 18 -26 22 -26 48 -7 17 13 18 18
6 40 -16 30 -31 32 -53 7z"/>
<path d="M313 3103 c-24 -5 -27 -13 -17 -49 4 -16 11 -20 30 -16 13 2 27 8 29
13 7 10 -5 59 -14 58 -3 -1 -16 -4 -28 -6z"/>
<path d="M1661 3064 c-6 -15 -10 -28 -9 -29 2 -1 14 -8 27 -15 21 -11 26 -10
38 6 18 25 16 42 -6 54 -29 15 -37 13 -50 -16z"/>
<path d="M3418 3060 c4 -27 -2 -33 -66 -74 -104 -68 -118 -73 -142 -51 -35 32
-22 5 57 -121 l77 -123 36 21 c19 12 42 27 50 35 13 12 9 13 -26 7 -29 -4 -50
-1 -72 10 -34 17 -80 84 -65 95 54 36 84 51 93 46 17 -11 11 -61 -10 -80 -42
-38 -17 -33 55 12 41 25 75 50 75 55 0 5 -9 4 -19 -2 -30 -15 -56 -12 -76 10
-10 11 -16 22 -14 24 15 13 90 56 98 56 16 0 51 -66 51 -96 0 -16 -9 -44 -20
-61 -11 -18 -17 -33 -15 -33 10 0 85 50 85 57 0 10 -144 242 -151 243 -3 0 -4
-13 -1 -30z"/>
<path d="M2405 3068 c-11 -6 -21 -12 -23 -14 -3 -2 15 -42 23 -52 3 -3 43 15
53 23 5 4 -21 55 -27 55 -3 0 -15 -6 -26 -12z"/>
<path d="M561 2933 l-83 -138 23 -15 c60 -40 99 -60 99 -50 0 6 -7 13 -15 16
-8 3 -23 25 -35 49 -18 38 -19 47 -8 74 l13 31 97 -57 c54 -31 101 -65 104
-75 3 -11 -2 -30 -11 -44 -9 -14 -14 -28 -12 -30 5 -5 127 191 127 204 0 4
-12 -8 -26 -25 -14 -18 -32 -33 -40 -33 -20 0 -204 109 -204 120 0 5 12 18 26
29 29 23 77 27 118 11 44 -16 29 3 -26 35 -29 17 -56 31 -59 33 -3 1 -43 -59
-88 -135z"/>
<path d="M3757 3033 c-6 -31 7 -45 37 -41 22 3 43 58 23 58 -7 0 -22 3 -33 6
-17 5 -22 0 -27 -23z"/>
<path d="M1494 2985 c-5 -18 -2 -30 7 -36 26 -16 47 -9 53 17 8 31 9 30 -26
39 -24 6 -28 3 -34 -20z"/>
<path d="M2571 2989 c-19 -8 -22 -14 -16 -37 8 -33 5 -31 38 -25 27 5 34 23
21 57 -7 18 -10 18 -43 5z"/>
<path d="M228 2948 c-24 -8 -26 -12 -16 -39 11 -33 9 -32 43 -19 21 8 25 14
20 33 -10 32 -17 36 -47 25z"/>
<path d="M3839 2882 c-8 -21 -7 -29 7 -39 27 -20 41 -16 52 15 9 26 7 29 -20
40 -27 10 -30 9 -39 -16z"/>
<path d="M1340 2870 c0 -27 3 -30 30 -30 19 0 30 5 30 14 0 8 3 21 6 30 5 13
-1 16 -30 16 -33 0 -36 -2 -36 -30z"/>
<path d="M2728 2882 c-46 -6 -34 -62 13 -62 25 0 29 4 29 29 0 34 -5 38 -42
33z"/>
<path d="M2025 2840 l-29 -30 29 -30 29 -30 30 30 31 30 -31 30 -30 30 -29
-30z"/>
<path d="M160 2789 c-33 -13 -32 -13 -19 -43 14 -29 27 -32 53 -13 14 10 15
18 7 40 -6 15 -12 27 -13 26 -2 0 -14 -5 -28 -10z"/>
<path d="M1227 2772 c-21 -2 -27 -8 -23 -19 3 -8 6 -21 6 -29 0 -9 11 -14 30
-14 27 0 30 3 30 29 0 34 -5 38 -43 33z"/>
<path d="M2837 2743 c-4 -3 -7 -16 -7 -29 0 -17 7 -23 30 -26 36 -5 40 -3 40
34 0 24 -4 28 -28 28 -16 0 -32 -3 -35 -7z"/>
<path d="M3619 2720 c-4 -34 -5 -34 -104 -66 -71 -23 -105 -30 -117 -23 -10 5
-18 14 -18 19 0 6 -4 10 -9 10 -5 0 3 -37 17 -81 23 -70 28 -78 32 -53 5 29
28 46 82 59 23 6 27 3 33 -24 6 -26 0 -39 -39 -89 -50 -64 -51 -67 -34 -123
11 -40 31 -56 21 -18 -4 13 5 35 25 63 19 26 32 58 34 82 l3 39 29 -52 c16
-29 38 -55 48 -59 33 -10 65 4 78 35 13 32 -1 95 -53 246 -23 66 -25 68 -28
35z m48 -136 c20 -57 13 -95 -19 -114 -21 -11 -32 -12 -45 -4 -19 11 -48 63
-58 105 -6 23 -2 26 42 41 26 9 52 15 57 14 5 -1 16 -20 23 -42z"/>
<path d="M3901 2719 c-7 -18 -5 -27 7 -36 24 -20 41 -16 54 12 13 29 12 31
-24 40 -23 6 -29 3 -37 -16z"/>
<path d="M405 2593 c-20 -65 -40 -131 -46 -147 -15 -47 -23 -41 108 -81 7 -2
-8 15 -32 39 -37 35 -45 49 -45 79 0 21 5 37 11 37 28 0 208 -62 219 -75 7 -8
9 -28 6 -47 -3 -18 10 14 29 72 38 115 43 144 17 90 -9 -19 -25 -36 -34 -38
-27 -5 -218 58 -218 73 0 40 83 82 138 68 12 -3 22 -3 22 0 0 5 -117 47 -131
47 -5 0 -24 -53 -44 -117z"/>
<path d="M98 2619 c-22 -12 -22 -28 -3 -53 13 -18 16 -18 39 -2 23 14 24 19
14 41 -12 27 -23 30 -50 14z"/>
<path d="M1113 2620 c-18 -7 -20 -13 -14 -37 6 -20 13 -27 27 -25 39 6 43 10
35 38 -8 32 -17 36 -48 24z"/>
<path d="M2937 2573 c-6 -33 -9 -30 25 -38 24 -6 29 -3 38 20 12 33 12 33 -27
41 -27 5 -31 3 -36 -23z"/>
<path d="M3954 2554 c-16 -23 -16 -26 2 -39 26 -20 41 -18 54 4 15 29 13 37
-15 49 -22 10 -27 9 -41 -14z"/>
<path d="M1420 2537 c0 -13 10 -17 45 -17 57 0 120 -31 138 -68 24 -47 26 -88
19 -427 -7 -297 -9 -333 -26 -361 -25 -42 -66 -64 -131 -71 -34 -4 -55 -11
-55 -18 0 -10 87 -14 376 -20 410 -8 491 -5 591 26 120 37 182 92 203 177 30
126 -64 234 -249 288 -42 12 -69 25 -61 27 8 3 38 13 66 21 115 37 196 107
210 183 14 74 -53 175 -143 215 -92 41 -163 47 -580 54 -372 7 -403 6 -403 -9z
m770 -39 c86 -27 120 -79 120 -185 0 -82 -24 -140 -71 -175 -55 -41 -93 -48
-250 -48 l-149 0 0 215 0 216 158 -6 c86 -4 173 -12 192 -17z m-43 -459 c71
-14 141 -63 171 -119 20 -39 23 -55 19 -116 -5 -85 -25 -125 -85 -170 -55 -43
-115 -54 -282 -54 l-140 0 0 163 c0 90 3 199 7 241 l6 78 126 -7 c69 -3 150
-11 178 -16z"/>
<path d="M55 2446 c-18 -13 -18 -17 -6 -40 17 -31 22 -32 52 -7 23 19 24 19 5
40 -23 25 -26 25 -51 7z"/>
<path d="M3992 2390 c-17 -28 -15 -38 10 -51 18 -10 24 -8 41 12 18 23 18 23
-5 41 -29 22 -31 22 -46 -2z"/>
<path d="M932 2342 c-99 -36 -144 -108 -116 -188 23 -67 65 -89 313 -164 114
-35 151 -61 151 -108 0 -66 -77 -110 -169 -97 -62 8 -159 56 -205 101 -39 38
-75 104 -76 137 0 10 -4 15 -10 12 -13 -8 -13 -265 -1 -265 5 0 12 9 16 19 3
10 19 24 35 31 27 11 41 9 123 -21 115 -42 197 -45 270 -10 87 42 123 117 92
197 -24 64 -73 92 -252 143 -81 23 -158 49 -171 57 -57 37 -43 112 26 141 77
32 223 -6 284 -75 17 -20 39 -55 50 -79 11 -24 23 -41 29 -38 12 8 12 195 -1
195 -5 0 -14 -9 -20 -20 -14 -27 -33 -25 -118 10 -94 40 -178 47 -250 22z"/>
<path d="M596 2302 c-5 -14 -43 -33 -139 -69 -73 -28 -132 -54 -132 -59 1 -5
21 -20 45 -33 149 -79 191 -106 196 -128 10 -40 22 -25 26 32 3 54 -4 71 -16
39 -4 -10 -15 -14 -33 -12 -26 3 -28 7 -31 54 -3 58 13 84 53 84 18 0 24 -6
27 -27 2 -16 8 7 12 50 8 76 4 108 -8 69z m-100 -209 c-2 -3 -27 7 -55 23 -28
15 -50 28 -49 30 2 1 26 11 53 22 l50 20 3 -45 c2 -25 1 -47 -2 -50z"/>
<path d="M2720 2311 c0 -6 16 -11 35 -11 40 0 71 -25 81 -66 8 -32 -2 -393
-12 -418 -8 -21 -55 -46 -89 -46 -14 0 -25 -4 -25 -10 0 -6 70 -10 191 -10
124 0 188 3 184 10 -3 6 -22 10 -41 10 -24 0 -43 8 -59 25 -23 22 -25 32 -25
115 l0 90 108 0 c215 0 302 47 302 164 0 61 -42 109 -113 132 -65 21 -537 34
-537 15z m439 -27 c53 -21 74 -55 74 -119 0 -106 -52 -145 -193 -145 l-80 0 0
140 0 140 80 0 c49 0 95 -6 119 -16z"/>
<path d="M3737 2279 c-9 -34 -16 -37 -136 -45 l-99 -7 -16 29 c-15 28 -15 26
-9 -46 6 -81 21 -138 22 -87 1 37 25 45 142 49 91 3 93 2 106 -22 12 -24 13
-23 12 20 0 25 -4 65 -8 90 -6 41 -7 42 -14 19z"/>
<path d="M30 2272 c-22 -17 -22 -18 -3 -41 19 -23 20 -23 46 -6 26 16 26 18 9
41 -21 28 -24 29 -52 6z"/>
<path d="M4017 2222 c-9 -10 -17 -23 -17 -29 0 -11 38 -49 43 -42 1 2 10 13
20 25 16 20 16 21 -6 42 -23 22 -24 22 -40 4z"/>
<path d="M22 2097 l-22 -23 23 -22 23 -22 22 23 22 23 -23 22 -23 22 -22 -23z"/>
<path d="M1447 2082 l-27 -28 30 -29 30 -29 30 29 30 29 -27 28 c-15 15 -30
28 -33 28 -3 0 -18 -13 -33 -28z"/>
<path d="M2626 2064 l-29 -25 28 -29 28 -29 32 27 32 27 -25 28 c-14 15 -28
27 -31 27 -3 0 -19 -12 -35 -26z"/>
<path d="M3497 2060 c-10 -44 -17 -124 -11 -117 4 4 12 17 19 29 10 22 16 23
100 20 49 -2 94 -6 101 -10 7 -4 -36 -45 -117 -107 -70 -55 -125 -103 -121
-106 4 -4 56 -11 115 -17 111 -11 137 -21 137 -53 0 -11 5 -19 10 -19 6 0 10
19 10 43 0 23 3 53 6 67 l5 25 -21 -27 c-19 -25 -28 -28 -83 -28 -100 0 -99 8
12 94 102 79 111 93 110 161 -1 40 -1 40 -11 11 l-11 -29 -97 7 c-120 7 -128
10 -139 50 -8 30 -8 31 -14 6z"/>
<path d="M4015 2040 c-18 -20 -18 -21 3 -43 l22 -21 22 21 c21 22 21 23 3 43
-10 11 -21 20 -25 20 -4 0 -15 -9 -25 -20z"/>
<path d="M537 1959 c-62 -10 -66 -14 -24 -28 47 -16 74 -48 86 -101 5 -24 9
-45 8 -46 -1 -1 -28 -5 -59 -9 -58 -7 -58 -7 -58 19 0 20 9 32 35 48 20 11 34
22 32 24 -4 5 -168 -24 -175 -31 -3 -3 4 -5 16 -5 32 0 71 -21 78 -42 3 -11 4
-21 2 -24 -3 -2 -32 -7 -66 -10 l-62 -7 0 61 c0 58 2 62 38 92 l37 32 -50 -7
c-27 -4 -52 -9 -54 -11 -4 -4 38 -277 45 -283 2 -2 4 5 4 16 0 31 17 39 105
52 44 7 88 15 97 17 11 3 28 -5 44 -23 l26 -28 -6 25 c-3 14 -15 81 -26 149
-11 68 -21 125 -22 126 -2 1 -25 -2 -51 -6z"/>
<path d="M21 1919 c-11 -19 -10 -24 9 -43 l21 -21 20 24 c18 22 18 25 3 42
-22 25 -36 24 -53 -2z"/>
<path d="M4012 1869 c-24 -19 -24 -19 -4 -43 18 -23 21 -24 41 -10 26 18 27
36 4 57 -16 14 -20 14 -41 -4z"/>
<path d="M46 1751 c-22 -24 -20 -38 5 -52 18 -9 25 -7 41 9 22 21 18 36 -11
52 -14 7 -23 5 -35 -9z"/>
<path d="M3985 1696 c-18 -13 -18 -17 -6 -40 17 -31 19 -31 49 -8 21 16 21 19
7 40 -19 26 -25 27 -50 8z"/>
<path d="M550 1602 c-34 -34 -35 -41 -19 -147 9 -59 9 -78 -1 -90 -20 -24 -49
-17 -70 18 -27 44 -26 96 5 141 28 41 24 43 -31 19 -28 -12 -34 -18 -21 -21
13 -3 17 -14 17 -53 0 -88 42 -152 101 -152 55 0 64 20 64 151 l0 117 30 0
c66 0 85 -128 29 -195 -31 -36 -24 -37 45 -9 49 21 50 22 29 33 -19 9 -24 22
-29 71 -8 86 -34 126 -91 140 -22 6 -33 1 -58 -23z"/>
<path d="M3470 1619 c-57 -23 -100 -92 -100 -158 0 -24 -7 -46 -17 -57 -10
-10 -13 -19 -8 -21 6 -2 26 -11 45 -21 27 -13 35 -23 35 -44 -1 -39 9 -25 44
65 36 91 39 105 11 59 -18 -29 -25 -33 -48 -27 -45 11 -55 25 -49 70 8 59 47
89 104 81 89 -12 153 -60 153 -116 0 -61 -59 -110 -133 -110 -26 -1 -29 -2
-15 -11 10 -5 36 -16 59 -24 41 -15 41 -15 35 9 -4 17 1 29 20 47 43 40 57 76
52 136 -4 46 -10 60 -40 90 -28 27 -45 36 -79 39 -24 2 -55 -1 -69 -7z"/>
<path d="M75 1574 c-16 -24 -15 -27 2 -40 25 -19 41 -17 53 5 15 29 13 37 -14
49 -21 9 -27 8 -41 -14z"/>
<path d="M1085 1540 c-8 -36 -8 -35 26 -44 23 -5 28 -2 33 21 8 28 2 37 -31
47 -18 6 -22 2 -28 -24z"/>
<path d="M2938 1533 c-29 -7 -19 -63 11 -63 30 0 43 15 35 43 -6 27 -12 29
-46 20z"/>
<path d="M3948 1529 c-21 -12 -22 -28 -4 -52 13 -17 16 -18 40 -2 22 14 23 20
14 41 -12 26 -23 29 -50 13z"/>
<path d="M123 1401 c-10 -26 -8 -30 15 -41 22 -10 28 -9 39 6 18 25 16 42 -6
54 -29 15 -36 13 -48 -19z"/>
<path d="M1188 1381 c-3 -23 0 -31 16 -35 40 -11 46 -7 46 29 0 32 -3 35 -29
35 -24 0 -29 -5 -33 -29z"/>
<path d="M2821 1381 c-9 -6 -11 -18 -7 -35 5 -21 12 -26 37 -26 28 0 30 2 27
33 -3 34 -29 46 -57 28z"/>
<path d="M3898 1364 c-25 -13 -26 -17 -16 -39 13 -28 26 -31 52 -12 16 12 17
16 5 39 -13 25 -15 26 -41 12z"/>
<path d="M1997 1312 l-27 -28 30 -29 30 -29 30 29 30 29 -27 28 c-15 15 -30
28 -33 28 -3 0 -18 -13 -33 -28z"/>
<path d="M1324 1274 c-6 -2 -8 -18 -6 -34 4 -25 9 -30 33 -30 26 0 29 3 29 35
0 30 -3 35 -22 34 -13 0 -28 -3 -34 -5z"/>
<path d="M189 1242 c-8 -21 -7 -29 7 -39 27 -20 41 -16 52 16 10 27 8 30 -19
40 -27 9 -31 8 -40 -17z"/>
<path d="M2687 1253 c-4 -3 -7 -19 -7 -35 0 -24 4 -28 30 -28 24 0 31 5 36 26
4 17 2 29 -7 35 -17 10 -43 12 -52 2z"/>
<path d="M3821 1201 c-9 -6 -12 -18 -7 -36 6 -23 10 -26 34 -20 35 9 34 8 26
39 -6 26 -27 33 -53 17z"/>
<path d="M1477 1163 c-13 -3 -16 -11 -11 -31 9 -35 8 -35 42 -27 27 5 29 9 23
33 -8 27 -21 34 -54 25z"/>
<path d="M2535 1148 c-13 -39 -9 -51 18 -59 24 -7 29 -4 38 18 11 29 6 37 -29
48 -14 4 -24 2 -27 -7z"/>
<path d="M695 1090 l-29 -30 29 -30 29 -30 30 30 31 30 -31 30 -30 30 -29 -30z"/>
<path d="M266 1085 c-8 -32 -3 -41 28 -47 40 -8 53 55 14 66 -34 9 -35 8 -42
-19z"/>
<path d="M1643 1083 c-16 -6 -17 -28 -3 -53 9 -17 14 -18 35 -8 25 11 30 24
19 52 -6 16 -27 19 -51 9z"/>
<path d="M2362 1055 c-10 -22 -9 -26 17 -39 27 -14 29 -14 40 12 11 22 10 28
-5 39 -26 19 -39 16 -52 -12z"/>
<path d="M3267 1052 l-27 -28 30 -29 30 -29 30 29 30 29 -27 28 c-15 15 -30
28 -33 28 -3 0 -18 -13 -33 -28z"/>
<path d="M3737 1053 c-11 -3 -16 -10 -13 -20 3 -8 6 -21 6 -29 0 -15 37 -19
57 -6 6 4 9 19 6 35 -5 27 -16 30 -56 20z"/>
<path d="M1817 1026 c-18 -14 -18 -16 -2 -40 14 -21 20 -24 37 -15 26 14 33
36 18 54 -15 18 -30 19 -53 1z"/>
<path d="M2186 1018 c-14 -20 -14 -24 1 -40 22 -25 37 -23 53 7 12 22 11 27
-6 40 -26 19 -30 19 -48 -7z"/>
<path d="M2007 1012 c-22 -24 -21 -35 1 -55 17 -16 20 -15 40 6 l22 23 -23 22
c-23 22 -24 22 -40 4z"/>
<path d="M357 933 c-7 -36 -2 -43 34 -43 25 0 29 4 29 29 0 21 -6 30 -22 35
-34 9 -35 8 -41 -21z"/>
<path d="M1028 938 c21 -21 14 -39 -44 -114 -59 -77 -78 -91 -101 -73 -7 7
-16 10 -19 7 -2 -3 11 -17 31 -32 19 -14 52 -38 72 -53 l37 -28 -18 27 c-17
27 -17 29 4 63 12 19 24 35 28 35 3 0 29 -16 57 -36 42 -28 60 -35 91 -32 31
2 40 8 48 29 17 48 0 76 -92 149 -48 38 -91 70 -96 70 -6 0 -5 -5 2 -12z m142
-119 c13 -24 -11 -75 -39 -84 -22 -7 -70 14 -90 39 -11 13 -7 23 24 61 l37 45
29 -21 c16 -11 34 -29 39 -40z"/>
<path d="M2949 872 c-36 -26 -89 -64 -117 -84 l-52 -38 36 -50 c39 -54 51 -60
34 -16 -16 42 -12 80 10 104 12 12 23 22 25 22 9 0 125 -170 125 -183 0 -9
-12 -25 -27 -36 -14 -12 -24 -23 -22 -25 5 -5 178 117 179 126 0 4 -13 0 -28
-9 -16 -9 -36 -14 -44 -11 -9 4 -41 43 -73 88 -47 66 -55 83 -45 95 18 22 58
18 108 -11 24 -14 40 -20 36 -12 -36 56 -60 88 -69 87 -5 0 -40 -21 -76 -47z"/>
<path d="M3630 888 c0 -37 14 -50 43 -42 44 11 32 64 -14 64 -23 0 -29 -4 -29
-22z"/>
<path d="M467 814 c-4 -4 -7 -20 -7 -36 0 -24 4 -28 29 -28 23 0 30 5 35 26 4
15 6 28 4 29 -8 9 -55 15 -61 9z"/>
<path d="M3520 756 c0 -32 13 -46 41 -46 26 0 29 4 29 30 0 28 -3 30 -35 30
-24 0 -35 -5 -35 -14z"/>
<path d="M1283 750 c25 -16 21 -38 -23 -135 -37 -80 -42 -87 -65 -83 -44 9
-27 -6 45 -39 39 -17 70 -28 70 -23 0 4 -7 10 -15 14 -19 7 -19 27 2 71 30 63
63 41 83 -57 14 -67 18 -74 50 -90 42 -20 62 -23 37 -4 -9 7 -21 33 -25 58 -5
25 -19 55 -31 67 -29 29 -24 33 21 19 47 -14 86 -4 100 28 18 39 -14 72 -122
125 -93 45 -166 73 -127 49z m142 -68 c53 -29 65 -54 45 -91 -14 -27 -58 -27
-110 -1 l-39 20 22 50 c12 27 24 50 27 50 3 0 28 -13 55 -28z"/>
<path d="M2736 715 c-3 -10 -20 -15 -48 -16 -24 -1 -34 -3 -23 -6 11 -2 30 -6
42 -9 13 -2 38 -18 58 -35 41 -36 44 -27 13 36 -23 48 -32 54 -42 30z"/>
<path d="M580 655 c0 -32 2 -35 30 -35 28 0 30 3 30 35 0 32 -2 35 -30 35 -28
0 -30 -3 -30 -35z"/>
<path d="M2604 675 c-28 -19 -54 -75 -54 -115 0 -106 139 -166 226 -97 28 21
54 74 53 104 0 10 -7 -4 -15 -30 -16 -52 -58 -87 -105 -87 -44 0 -94 73 -105
153 -5 38 -3 47 17 66 26 24 14 29 -17 6z"/>
<path d="M3404 636 c-12 -31 0 -51 34 -54 32 -3 33 -2 30 30 -2 28 -7 34 -31
36 -17 2 -29 -2 -33 -12z"/>
<path d="M2332 593 c-107 -23 -120 -27 -100 -37 25 -13 44 -70 54 -167 6 -52
5 -57 -15 -64 -13 -4 -21 -9 -18 -11 5 -6 260 46 268 54 3 4 1 30 -6 57 l-11
50 -13 -43 c-13 -46 -40 -69 -95 -82 -39 -9 -39 -8 -52 63 -6 35 -5 37 20 37
19 0 32 -8 44 -30 9 -16 20 -30 23 -30 7 0 -24 146 -34 156 -4 4 -7 -7 -7 -24
0 -23 -7 -36 -25 -48 -14 -9 -27 -15 -29 -13 -4 5 -25 113 -22 116 1 1 25 5
54 9 51 6 53 6 88 -32 l36 -38 -7 34 c-10 55 -16 70 -23 69 -4 -1 -62 -13
-130 -26z"/>
<path d="M1660 578 c-86 -44 -101 -136 -35 -202 95 -95 265 -44 265 79 0 60
-49 117 -115 134 -59 15 -64 14 -115 -11z m139 -17 c62 -62 13 -221 -66 -221
-62 0 -91 50 -78 136 9 61 47 104 91 104 20 0 42 -8 53 -19z"/>
<path d="M712 561 c-8 -4 -12 -19 -10 -32 2 -19 10 -25 36 -27 32 -3 33 -2 30
30 -3 34 -28 48 -56 29z"/>
<path d="M2030 553 c14 -3 31 -10 38 -15 16 -14 17 -199 0 -216 -14 -14 -78
-16 -78 -2 0 6 4 10 9 10 13 0 21 27 14 46 -3 9 -15 14 -32 12 -20 -2 -27 -9
-29 -30 -4 -35 30 -58 86 -58 35 0 49 6 73 29 28 28 29 33 29 121 0 85 1 91
23 100 15 6 -5 9 -68 8 -49 0 -79 -3 -65 -5z"/>
<path d="M3274 505 c-8 -31 -7 -33 31 -37 27 -3 30 0 33 30 3 30 1 32 -27 32
-24 0 -32 -5 -37 -25z"/>
<path d="M847 453 c-4 -3 -7 -19 -7 -35 0 -22 4 -28 23 -28 36 0 49 14 41 43
-4 19 -13 27 -28 27 -13 0 -26 -3 -29 -7z"/>
<path d="M3136 404 c-9 -33 4 -47 35 -42 34 4 40 53 7 62 -34 9 -35 8 -42 -20z"/>
<path d="M1015 362 c-31 -6 -37 -16 -26 -44 8 -20 15 -25 35 -21 18 4 26 12
26 27 0 30 -12 43 -35 38z"/>
<path d="M2989 320 c-1 -11 -2 -25 -3 -32 -1 -6 11 -15 26 -19 23 -6 28 -3 37
22 9 27 8 31 -15 39 -36 14 -44 12 -45 -10z"/>
<path d="M1159 276 c-23 -9 -25 -14 -17 -36 12 -32 12 -32 43 -24 23 6 26 10
20 33 -9 36 -16 40 -46 27z"/>
<path d="M2832 232 c-9 -26 -7 -29 20 -40 27 -10 30 -9 39 16 8 21 7 29 -7 39
-27 20 -41 16 -52 -15z"/>
<path d="M1320 209 c-33 -13 -32 -13 -19 -43 14 -29 27 -32 53 -13 14 10 15
18 7 40 -6 15 -12 27 -13 26 -2 0 -14 -5 -28 -10z"/>
<path d="M2671 173 c-13 -28 -8 -37 25 -47 16 -5 23 0 33 20 6 15 10 28 9 29
-6 5 -47 25 -51 25 -2 0 -9 -12 -16 -27z"/>
<path d="M1476 147 c-16 -12 -17 -17 -6 -38 7 -13 14 -25 15 -27 2 -2 15 4 29
13 22 14 23 20 14 41 -13 27 -26 30 -52 11z"/>
<path d="M2505 124 c-9 -14 -15 -27 -13 -29 2 -1 14 -8 27 -15 21 -11 26 -10
38 6 19 26 16 39 -11 52 -21 9 -27 8 -41 -14z"/>
<path d="M1645 106 c-18 -13 -18 -17 -6 -40 17 -31 19 -31 51 -7 24 19 24 20
6 40 -23 25 -26 25 -51 7z"/>
<path d="M2336 92 c-19 -24 -19 -25 5 -43 22 -16 25 -16 41 -2 24 22 23 38 -5
56 -21 13 -24 12 -41 -11z"/>
<path d="M1815 80 c-18 -20 -18 -21 2 -41 18 -18 23 -19 42 -8 26 17 27 31 3
52 -23 21 -25 21 -47 -3z"/>
<path d="M2165 74 c-16 -25 -16 -27 3 -46 21 -22 36 -18 52 11 7 14 4 23 -14
40 l-23 22 -18 -27z"/>
<path d="M1992 67 c-22 -23 -22 -24 -4 -40 24 -22 35 -21 55 1 16 17 15 20 -6
40 l-23 22 -22 -23z"/>
</g>
</svg>
